#
# Exported by OpenBRF -- marco tarini
#
s arrow
newmtl missiles
Ka 0.8 0.8 0.8
Kd 0.2 0.2 0.2
usemtl missiles
v -0.0928 2.611 17.744
v -0.1928 0.2655 17.744
v -0.0928 0.2655 26.3246
v -0.0928 1.581 24.7027
v 0.0072 0.2655 17.744
v 2.1715 -1.3109 17.744
v 0.1902 -0.0515 17.744
v 0.1402 -0.1381 26.3246
v 1.2795 -0.7959 24.7027
v 0.0902 -0.2247 17.744
v -0.2758 -0.2247 17.744
v -0.3258 -0.1381 26.3246
v -1.4651 -0.7959 24.7027
v -2.3571 -1.3109 17.744
v -0.3758 -0.0515 17.744
v 0.2042 0.5108 2.3911
v 0.5012 -0.0036 2.3911
v 0.2042 -0.518 2.3911
v -0.3898 -0.518 2.3911
v -0.6868 -0.0036 2.3911
v -0.3898 0.5108 2.3911
v -0.6274 -0.0036 92.7598
v -0.3601 0.4594 92.7598
v -0.4384 -0.0036 96.6546
v -0.2656 0.2957 96.6546
v -0.3601 -0.4665 92.7598
v -0.2656 -0.3029 96.6546
v 0.1745 -0.4665 92.7598
v 0.08 -0.3029 96.6546
v 0.4418 -0.0036 92.7598
v 0.2528 -0.0036 96.6546
v 0.1745 0.4594 92.7598
v 0.08 0.2957 96.6546
v -0.7514 0.2957 97.5676
v -1.4101 -0.0036 97.5676
v -0.7514 -0.3029 97.5676
v 0.5659 -0.3029 97.5676
v 1.2245 -0.0036 97.5676
v 0.5659 0.2957 97.5676
v 0.2487 0.176 101.166
v -0.1465 -0.0036 104.495
v 0.6439 -0.0036 101.166
v 0.2487 -0.1832 101.166
v -0.5417 -0.1832 101.166
v -0.9369 -0.0036 101.166
v -0.5417 0.176 101.166
v -0.0928 3.7405 4.5267
v -0.0928 0.2655 5.1831
v 3.1497 -1.8756 4.9314
v 0.1402 -0.1381 7.0509
v -3.3353 -1.8756 4.9314
v -0.3258 -0.1381 7.0509
vn -0.999307 0.03721 0.00135
vt 0.757635 0.865247
vn -0.999091 0.042596 0.001844
vt 0.773818 0.827672
vn -0.99985 0.016691 0.004562
vt 0.858049 0.827484
vn -1 0 0
vt 0.840498 0.850898
vn 0.99985 0.016691 0.004562
vt 0.858049 0.827484
vn 0.999217 0.038989 0.006692
vt 0.773818 0.827672
vn 0.999138 0.040939 0.006887
vt 0.757635 0.865247
vn 1 0 0
vt 0.840498 0.850898
vn 0.531491 0.847064 0.000819
vt 0.784026 0.862747
vn 0.536442 0.843936 0.00115
vt 0.783259 0.827606
vn 0.514393 0.857543 0.004564
vt 0.840841 0.828996
vn 0.500017 0.866016 2e-06
vt 0.827406 0.850369
vn -0.464125 -0.885742 0.006943
vt 0.784026 0.862747
vn -0.500017 -0.866016 -2e-06
vt 0.827406 0.850369
vn -0.485485 -0.874233 0.004561
vt 0.840841 0.828996
vn -0.466263 -0.884622 0.006592
vt 0.765625 0.827334
vn 0.464156 -0.885753 -0.001202
vt 0.771398 0.827431
vn 0.487488 -0.873052 0.011652
vt 0.831147 0.82738
vn 0.484329 -0.874817 0.010967
vt 0.814062 0.851447
vn 0.466384 -0.884581 -0.001196
vt 0.749638 0.864918
vn -0.514393 0.857543 0.004564
vt 0.831147 0.82738
vn -0.536442 0.843936 0.00115
vt 0.746152 0.827704
vn -0.531491 0.847064 0.000819
vt 0.749638 0.864918
vn -0.500017 0.866016 2e-06
vt 0.814062 0.851447
vn 0.396292 0.686409 -0.609749
vt 0.459944 0.990055
vn 0.792597 -1e-06 -0.609746
vt 0.459944 0.991649
vn 0.396291 -0.686411 -0.609749
vt 0.459944 0.990055
vn -0.396292 -0.68641 -0.609749
vt 0.459944 0.986865
vn -0.792597 1e-06 -0.609746
vt 0.459944 0.98527
vn -0.396291 0.68641 -0.609749
vt 0.459944 0.986865
vn -0.396291 0.68641 -0.609749
vt 0.459944 0.986865
vn -0.792597 1e-06 -0.609746
vt 0.459944 0.98527
vn -0.999703 -4.6e-05 0.024386
vt 0.140649 0.985589
vn -0.49986 0.865763 0.024388
vt 0.140649 0.987024
vn -0.978652 0.166722 -0.120182
vt 0.126888 0.986604
vn -0.431835 0.898794 -0.075414
vt 0.126888 0.987532
vn -0.499822 -0.865785 0.024379
vt 0.140649 0.987024
vn -0.999703 -4.6e-05 0.024386
vt 0.140649 0.985589
vn -0.306576 -0.951819 0.007162
vt 0.126888 0.987532
vn -0.978652 0.166722 -0.120182
vt 0.126888 0.986604
vn 0.499822 -0.865785 0.024377
vt 0.140649 0.989895
vn 0.431817 -0.898801 -0.075436
vt 0.126888 0.989388
vn 0.999703 -4.5e-05 0.024384
vt 0.140649 0.99133
vn 0.978649 -0.166724 -0.120208
vt 0.126888 0.990315
vn 0.792597 -1e-06 -0.609746
vt 0.459944 0.991649
vn 0.396292 0.686409 -0.609749
vt 0.459944 0.990055
vn 0.49986 0.865763 0.024387
vt 0.140649 0.989895
vn 0.999703 -4.5e-05 0.024384
vt 0.140649 0.99133
vn 0.306576 0.951819 0.007171
vt 0.126888 0.989388
vn 0.978649 -0.166724 -0.120208
vt 0.126888 0.990315
vn -0.431835 0.898794 -0.075414
vt 0.350896 0.961971
vn -0.978652 0.166722 -0.120182
vt 0.350896 0.961156
vn -0.09651 0.99478 -0.033143
vt 0.354138 0.959679
vn -0.378607 0.83324 -0.402949
vt 0.350896 0.961156
vn -0.378607 0.83324 -0.402949
vt 0.354138 0.956572
vn -0.378607 0.83324 -0.402949
vt 0.354138 0.959679
vn -0.636794 -0.367651 -0.677736
vt 0.350896 0.961156
vn -0.636794 -0.367651 -0.677736
vt 0.350896 0.961971
vn -0.636794 -0.367651 -0.677736
vt 0.354138 0.956572
vn -0.306576 -0.951819 0.007162
vt 0.350896 0.961971
vn -0.181736 -0.979627 -0.08546
vt 0.354138 0.959679
vn -0.404007 -0.889138 -0.214969
vt 0.354138 0.956572
vn 0.431817 -0.898801 -0.075436
vt 0.350896 0.963601
vn 0.978649 -0.166724 -0.120208
vt 0.350896 0.964416
vn 0.097548 -0.994654 -0.03387
vt 0.354138 0.965892
vn 0.378647 -0.833201 -0.402992
vt 0.350896 0.964416
vn 0.378647 -0.833201 -0.402992
vt 0.354138 0.968999
vn 0.378647 -0.833201 -0.402992
vt 0.354138 0.965892
vn 0.636794 0.367651 -0.677736
vt 0.350896 0.964416
vn 0.636794 0.367651 -0.677736
vt 0.350896 0.963601
vn 0.636794 0.367651 -0.677736
vt 0.354138 0.968999
vn 0.306576 0.951819 0.007171
vt 0.350896 0.963601
vn 0.18295 0.979329 -0.086274
vt 0.354138 0.965892
vn 0.404051 0.889102 -0.215037
vt 0.354138 0.968999
vn 0.412308 0.907262 0.082934
vt 0.366917 0.964396
vn 0.411752 0.906039 0.097744
vt 0.378742 0.962532
vn 0.412395 0.907452 0.080379
vt 0.366917 0.96626
vn 0.412811 0.908378 0.066612
vt 0.354138 0.965892
vn 0.412811 0.908378 0.066612
vt 0.354138 0.968999
vn 0.412395 -0.907452 0.080379
vt 0.366917 0.96626
vn 0.411752 -0.906039 0.097744
vt 0.378742 0.962532
vn 0.412308 -0.907262 0.082934
vt 0.366917 0.964396
vn 0.412811 -0.908378 0.066612
vt 0.354138 0.968999
vn 0.412811 -0.908378 0.066612
vt 0.354138 0.965892
vn -0.412508 -0.907703 0.076897
vt 0.366917 0.960668
vn -0.411752 -0.906039 0.097744
vt 0.378742 0.962532
vn -0.412605 -0.907924 0.073693
vt 0.366917 0.958804
vn -0.413071 -0.909077 0.054324
vt 0.354138 0.959679
vn -0.413067 -0.909079 0.054324
vt 0.354138 0.956572
vn -0.412608 0.907922 0.073699
vt 0.366917 0.958804
vn -0.411752 0.906039 0.097744
vt 0.378742 0.962532
vn -0.412505 0.907704 0.076902
vt 0.366917 0.960668
vn -0.413072 0.909077 0.054318
vt 0.354138 0.956572
vn -0.413067 0.909079 0.054317
vt 0.354138 0.959679
vn 0 -0.99908 0.042876
vt 0.366917 0.964396
vn 0 0 1
vt 0.378742 0.962532
vn 0 -0.999076 0.042969
vt 0.366917 0.960668
vn 0 0.999076 0.042969
vt 0.366917 0.960668
vn 0 0 1
vt 0.378742 0.962532
vn 0 0.99908 0.042876
vt 0.366917 0.964396
vn -1 0 0
vt 0.631355 0.867257
vn -0.99999 0.004478 -0.000836
vt 0.656772 0.827383
vn 0.999967 -0.001504 -0.007961
vt 0.656772 0.827383
vn 0.99997 0.004336 -0.006426
vt 0.631355 0.867257
vn 0.499994 0.866029 4e-06
vt 0.631406 0.876073
vn 0.503754 0.863847 -0.00095
vt 0.66362 0.82747
vn -0.504902 -0.863126 -0.009351
vt 0.66362 0.82747
vn -0.497001 -0.867723 -0.006872
vt 0.631406 0.876073
vn 0.499994 -0.866029 -4e-06
vt 0.665388 0.867109
vn 0.496228 -0.868192 -0.000957
vt 0.686141 0.827568
vn -0.503754 0.863847 -0.00095
vt 0.686141 0.827568
vn -0.499994 0.866029 4e-06
vt 0.665388 0.867109
f 1/1/1 2/2/2 3/3/3
f 3/3/3 4/4/4 1/1/1
f 3/5/5 5/6/6 1/7/7
f 1/7/7 4/8/8 3/5/5
f 6/9/9 7/10/10 8/11/11
f 8/11/11 9/12/12 6/9/9
f 6/13/13 9/14/14 8/15/15
f 8/15/15 10/16/16 6/13/13
f 11/17/17 12/18/18 13/19/19
f 13/19/19 14/20/20 11/17/17
f 12/21/21 15/22/22 14/23/23
f 14/23/23 13/24/24 12/21/21
f 16/25/25 17/26/26 18/27/27
f 18/27/27 19/28/28 20/29/29
f 16/25/25 18/27/27 20/29/29
f 16/25/25 20/29/29 21/30/30
f 21/31/31 20/32/32 22/33/33
f 23/34/34 21/31/31 22/33/33
f 22/33/33 24/35/35 25/36/36
f 23/34/34 22/33/33 25/36/36
f 20/29/29 19/28/28 26/37/37
f 22/38/38 20/29/29 26/37/37
f 26/37/37 27/39/39 24/40/40
f 22/38/38 26/37/37 24/40/40
f 19/28/28 18/27/27 28/41/41
f 26/37/37 19/28/28 28/41/41
f 28/41/41 29/42/42 27/39/39
f 26/37/37 28/41/41 27/39/39
f 18/27/27 17/26/26 30/43/43
f 28/41/41 18/27/27 30/43/43
f 30/43/43 31/44/44 29/42/42
f 28/41/41 30/43/43 29/42/42
f 17/45/45 16/46/46 32/47/47
f 30/48/48 17/45/45 32/47/47
f 32/47/47 33/49/49 31/50/50
f 30/48/48 32/47/47 31/50/50
f 23/34/34 25/36/36 33/49/49
f 23/34/34 33/49/49 32/47/47
f 23/34/34 32/47/47 16/46/46
f 21/31/31 23/34/34 16/46/46
f 25/51/51 24/52/52 34/53/53
f 24/54/54 35/55/55 34/56/56
f 24/57/57 27/58/58 35/59/59
f 27/60/60 36/61/61 35/62/62
f 29/63/63 31/64/64 37/65/65
f 31/66/66 38/67/67 37/68/68
f 31/69/69 33/70/70 38/71/71
f 33/72/72 39/73/73 38/74/74
f 40/75/75 41/76/76 42/77/77
f 39/78/78 40/75/75 42/77/77
f 38/79/79 39/78/78 42/77/77
f 42/80/80 41/81/81 43/82/82
f 38/83/83 42/80/80 43/82/82
f 37/84/84 38/83/83 43/82/82
f 44/85/85 41/86/86 45/87/87
f 36/88/88 44/85/85 45/87/87
f 35/89/89 36/88/88 45/87/87
f 45/90/90 41/91/91 46/92/92
f 35/93/93 45/90/90 46/92/92
f 34/94/94 35/93/93 46/92/92
f 43/95/95 41/96/96 44/97/97
f 37/65/65 43/95/95 44/97/97
f 37/65/65 44/97/97 36/61/61
f 29/63/63 37/65/65 36/61/61
f 29/63/63 36/61/61 27/60/60
f 46/98/98 41/99/99 40/100/100
f 34/53/53 46/98/98 40/100/100
f 34/53/53 40/100/100 39/73/73
f 25/51/51 34/53/53 39/73/73
f 25/51/51 39/73/73 33/72/72
f 1/1/1 47/101/101 48/102/102
f 48/102/102 2/2/2 1/1/1
f 5/6/6 48/103/103 47/104/104
f 47/104/104 1/7/7 5/6/6
f 6/9/9 49/105/105 50/106/106
f 50/106/106 7/10/10 6/9/9
f 10/16/16 50/107/107 49/108/108
f 49/108/108 6/13/13 10/16/16
f 14/20/20 51/109/109 52/110/110
f 52/110/110 11/17/17 14/20/20
f 14/23/23 15/22/22 52/111/111
f 52/111/111 51/112/112 14/23/23
