#
# Exported by OpenBRF -- marco tarini
#
s long_bow
newmtl weapons1
Ka 0.8 0.8 0.8
Kd 0.2 0.2 0.2
usemtl weapons1
v -8.7099 -1.8988 -92.844
v -14.1947 -0.8857 -117.859
v -8.2177 -1.0947 -93.2965
v -3.7032 -1.9448 -62.7213
v -9.9508 -1.0865 -91.7032
v -14.7778 -1.5289 -117.745
v -5.5442 -1.1123 -62.0871
v -10.3007 -0.0495 -91.3815
v -15.3351 -0.8791 -117.553
v -6.0634 -0.0495 -61.9082
v -9.925 0.9956 -91.727
v -15.7497 -0.0495 -117.473
v -5.5059 1.0216 -62.1002
v -8.678 1.7996 -92.8733
v -15.3046 0.7865 -117.559
v -3.6559 1.8456 -62.7376
v -8.2047 0.9873 -93.3084
v -14.74 1.4298 -117.753
v -2.9536 1.0131 -62.9795
v -14.1793 0.7799 -117.862
v -14.9574 0.7799 -121.969
v -15.4363 1.4298 -122.308
v -15.9646 0.7865 -122.968
v -15.9907 -0.8791 -122.986
v -15.4686 -1.5289 -122.331
v -15.4253 -0.9372 -123.541
v -15.1264 -0.5513 -123.33
v -14.9705 -0.8857 -121.978
v -16.3448 -0.0495 -123.237
v -15.1186 0.4481 -123.324
v -15.4059 0.838 -123.528
v -15.7184 0.4521 -124.208
v -15.9465 -0.0495 -124.37
v -15.734 -0.5473 -124.219
v -15.0679 -0.1989 -124.667
v -14.9418 -0.3159 -124.611
v -14.936 0.2167 -124.607
v -14.8498 -0.0415 -124.546
v -8.2177 -1.0947 93.1032
v -14.1946 -0.8857 117.665
v -8.7099 -1.8988 92.6507
v -3.7032 -1.9448 62.528
v -14.7778 -1.5289 117.552
v -9.9508 -1.0865 91.5099
v -5.5442 -1.1123 61.8938
v -15.3351 -0.8791 117.36
v -10.3007 -0.0495 91.1882
v -6.0634 -0.0495 61.7149
v -15.7497 -0.0495 117.28
v -9.925 0.9956 91.5337
v -5.5059 1.0216 61.9069
v -15.3045 0.7866 117.366
v -8.678 1.7996 92.68
v -3.6559 1.8457 62.5443
v -14.74 1.4298 117.56
v -8.2047 0.9873 93.1151
v -2.9536 1.0131 62.7862
v -14.9574 0.78 121.776
v -14.1793 0.78 117.668
v -15.4363 1.4298 122.115
v -15.9646 0.7866 122.774
v -15.9907 -0.8791 122.793
v -15.4686 -1.5289 122.137
v -14.9705 -0.8857 121.785
v -15.1264 -0.5512 123.137
v -15.4252 -0.9372 123.348
v -16.3447 -0.0495 123.043
v -15.4059 0.8381 123.334
v -15.1186 0.4482 123.131
v -15.7183 0.4521 124.015
v -15.9464 -0.0495 124.176
v -15.734 -0.5473 124.026
v -15.0679 -0.1989 124.473
v -14.9418 -0.3158 124.417
v -15.0632 0.1009 124.47
v -14.8498 -0.0415 124.352
v -2.9729 -1.1207 -62.9729
v -0.3852 1.0562 -44.9229
v -0.4053 -1.1641 -44.9196
v 1.1356 1.0992 -26.8662
v 1.1146 -1.2075 -26.8662
v 1.4603 0.9843 -11.3991
v 1.4411 -1.0917 -11.3992
v 1.6518 -1.2198 -10.9867
v 0.8304 -2.1201 -10.9912
v 0.72 -1.8935 -11.4038
v -1.2395 -1.2106 -10.9885
v -1.0974 -1.0835 -11.4011
v -1.8232 -0.0495 -10.9862
v -1.6099 -0.0495 -11.3986
v -1.1965 1.1207 -10.9886
v -1.0596 0.9926 -11.4012
v 0.8836 2.021 -10.9911
v 0.7667 1.7943 -11.4038
v 1.6737 1.1114 -10.9866
v 0.8304 -2.1201 10.7979
v 1.6518 -1.2198 10.7934
v 1.4411 -1.0917 11.2059
v 0.72 -1.8935 11.2105
v -1.2395 -1.2106 10.7953
v -1.0974 -1.0835 11.2078
v -1.8232 -0.0495 10.7929
v -1.6099 -0.0495 11.2054
v -1.1965 1.1207 10.7953
v -1.0596 0.9926 11.2079
v 0.8836 2.021 10.7978
v 0.7667 1.7943 11.2105
v 1.6737 1.1114 10.7933
v 1.4603 0.9843 11.2058
v -2.9728 -1.1207 62.7796
v -1.171 -2.0216 44.6005
v -0.4053 -1.1641 44.7263
v 0.3135 -2.0983 26.673
v 1.1146 -1.2075 26.673
v -3.1012 -1.1553 44.2834
v -1.7059 -1.1984 26.673
v -3.6456 -0.0495 44.1939
v -2.2754 -0.0495 26.673
v -3.0611 1.065 44.29
v -1.6639 1.1084 26.673
v -1.1214 1.9224 44.6086
v 0.3654 1.9992 26.673
v -0.3852 1.0562 44.7296
v 1.1356 1.0992 26.673
v -1.171 -2.0216 -44.7938
v 0.3135 -2.0983 -26.8662
v -3.1012 -1.1553 -44.4766
v -1.7059 -1.1984 -26.8662
v -3.6456 -0.0495 -44.3872
v -2.2754 -0.0495 -26.8662
v -3.0611 1.065 -44.4832
v -1.6639 1.1084 -26.8662
v -1.1214 1.9224 -44.8019
v 0.3654 1.9992 -26.8662
v -15.4104 -0.1513 -121.118
v -15.6416 -0.1513 1.3484
v -16.0495 -0.1513 1.3484
v -15.8354 -0.1513 -121.053
v -15.7031 -0.1513 120.724
v -16.1347 -0.1513 120.697
v -15.4104 0.1764 -121.118
v -15.8354 0.1764 -121.053
v -16.0495 0.1764 1.3484
v -15.6416 0.1764 1.3484
v -16.1347 0.1764 120.697
v -15.7031 0.1764 120.724
vn 0.227323 -0.972668 -0.047338
vt 0.603155 0.03808
vn 0.910771 -0.365213 -0.192654
vt 0.603234 0.012571
vn 0.930369 -0.309158 -0.197064
vt 0.601609 0.038089
vn 0.208361 -0.977421 -0.035133
vt 0.603106 0.073404
vn -0.745084 -0.654 0.130893
vt 0.607053 0.038059
vn -0.03338 -0.999282 -0.01793
vt 0.604891 0.012094
vn -0.679225 -0.727405 0.09765
vt 0.608579 0.073676
vn -0.985476 0.011617 0.169415
vt 0.608152 0.038053
vn -0.817969 -0.560315 0.130282
vt 0.606509 0.011731
vn -0.990025 0.013666 0.140229
vt 0.610123 0.073753
vn -0.7329 0.667464 0.131719
vt 0.606972 0.038059
vn -0.987535 0.00968699 0.157104
vt 0.607687 0.011391
vn -0.985476 0.011617 0.169415
vt 0.608152 0.038053
vn -0.668032 0.738187 0.093874
vt 0.608465 0.07367
vn 0.235362 0.970346 -0.055081
vt 0.603055 0.038081
vn -0.803088 0.579042 0.140569
vt 0.606422 0.011755
vn 0.220883 0.974564 -0.037888
vt 0.602966 0.073397
vn 0.935302 0.291703 -0.200299
vt 0.601568 0.038089
vn -0.007782 0.999869 -0.014219
vt 0.604783 0.012125
vn 0.926705 0.346264 -0.14601
vt 0.600878 0.073293
vn 0.915465 0.349538 -0.199364
vt 0.60319 0.012584
vn 0.94021 0.297023 -0.166682
vt 0.603642 0.00724298
vn 0.013297 0.988052 -0.153547
vt 0.604825 0.006374
vn -0.761562 0.628268 -0.159065
vt 0.606012 0.00510001
vn -0.987535 0.00968699 0.157104
vt 0.607687 0.011391
vn -0.799092 -0.586755 -0.131037
vt 0.606076 0.00505298
vn -0.013688 -0.99036 -0.137842
vt 0.604905 0.00631601
vn 0.355759 -0.862432 -0.360065
vt 0.604285 0.005023
vn 0.948262 -0.312404 -0.056588
vt 0.603547 0.00556499
vn 0.936016 -0.305159 -0.175361
vt 0.603675 0.00721902
vn -0.989633 0.010171 -0.14326
vt 0.606951 0.00441098
vn -0.989633 0.010171 -0.14326
vt 0.606951 0.00441098
vn 0.952022 0.297434 -0.07202
vt 0.603528 0.00558001
vn 0.259784 0.904768 -0.337502
vt 0.604237 0.00505799
vn -0.451882 0.69036 -0.564984
vt 0.604819 0.00398397
vn -0.726234 0.017892 -0.687215
vt 0.605383 0.00357002
vn -0.726234 0.017892 -0.687215
vt 0.605383 0.00357002
vn -0.434943 -0.691916 -0.576261
vt 0.604858 0.00395602
vn -0.033448 -0.234517 -0.971536
vt 0.602834 0.00414902
vn 0.486261 -0.605642 -0.62988
vt 0.602508 0.00434202
vn 0.531172 0.543962 -0.649586
vt 0.602494 0.00435197
vn 0.939101 0.018992 -0.343116
vt 0.602281 0.00450802
vn 0.531172 0.543962 -0.649586
vt 0.602494 0.00435197
vn 0.939101 0.018992 -0.343116
vt 0.602281 0.00450802
vn 0.486261 -0.605642 -0.62988
vt 0.602508 0.00434202
vn -0.033448 -0.234517 -0.971536
vt 0.602834 0.00414902
vn 0.952022 0.297434 -0.07202
vt 0.603528 0.00558001
vn 0.930369 -0.309158 0.197064
vt 0.618053 0.037489
vn 0.910768 -0.365217 0.19266
vt 0.618455 0.010925
vn 0.227323 -0.972668 0.047337
vt 0.6196 0.037508
vn 0.208145 -0.977468 0.035111
vt 0.619874 0.072711
vn -0.033421 -0.999281 0.017922
vt 0.620174 0.011059
vn -0.745084 -0.654001 -0.130893
vt 0.623498 0.037555
vn -0.679127 -0.727458 -0.097935
vt 0.625303 0.073459
vn -0.817972 -0.560311 -0.130279
vt 0.621818 0.011285
vn -0.985476 0.011617 -0.169415
vt 0.624597 0.037568
vn -0.990028 0.013494 -0.14022
vt 0.626834 0.07367
vn -0.985476 0.011617 -0.169415
vt 0.624597 0.037568
vn -0.987535 0.009704 -0.157102
vt 0.62304 0.01138
vn -0.732901 0.667463 -0.131718
vt 0.623417 0.037554
vn -0.668142 0.738124 -0.093589
vt 0.62519 0.073444
vn -0.803076 0.579058 -0.140571
vt 0.621727 0.011278
vn 0.235362 0.970346 0.055081
vt 0.619499 0.037507
vn 0.221072 0.974521 0.037906
vt 0.619735 0.072692
vn -0.007817 0.999869 0.014209
vt 0.620063 0.01105
vn 0.935301 0.291704 0.2003
vt 0.618013 0.037489
vn 0.926701 0.346329 0.145884
vt 0.617664 0.072407
vn 0.940199 0.297058 0.166679
vt 0.618598 0.00569499
vn 0.915443 0.349597 0.199362
vt 0.61841 0.010922
vn 0.013293 0.988058 0.153508
vt 0.62001 0.00529599
vn -0.761568 0.62825 0.159109
vt 0.621568 0.00451797
vn -0.987535 0.009704 -0.157102
vt 0.62304 0.01138
vn -0.799121 -0.586715 0.131038
vt 0.621645 0.00449598
vn -0.013707 -0.990362 0.137821
vt 0.620105 0.00526899
vn 0.936019 -0.30515 0.17536
vt 0.618637 0.00568402
vn 0.948309 -0.312266 0.056569
vt 0.619096 0.00409001
vn 0.355901 -0.862377 0.360056
vt 0.619977 0.00384098
vn -0.989631 0.010156 0.143277
vt 0.622688 0.00420099
vn -0.989631 0.010156 0.143277
vt 0.622688 0.00420099
vn 0.262246 0.899902 0.348429
vt 0.61992 0.00385702
vn 0.952014 0.297459 0.07202
vt 0.619073 0.00409698
vn -0.426059 0.709269 0.561614
vt 0.620842 0.00305498
vn -0.734596 0.011927 0.6784
vt 0.621514 0.002864
vn -0.435009 -0.691873 0.576263
vt 0.620888 0.00304198
vn -0.734596 0.011927 0.6784
vt 0.621514 0.002864
vn -0.003274 -0.290565 0.95685
vt 0.618924 0.002514
vn 0.486423 -0.605607 0.629789
vt 0.618552 0.00257999
vn 0.229677 0.480333 0.84648
vt 0.61891 0.002518
vn 0.912774 0.164246 0.373989
vt 0.618281 0.002657
vn -0.003274 -0.290565 0.95685
vt 0.618924 0.002514
vn 0.486423 -0.605607 0.629789
vt 0.618552 0.00257999
vn 0.912774 0.164246 0.373989
vt 0.618281 0.002657
vn 0.952014 0.297459 0.07202
vt 0.619073 0.00409698
vn 0.94021 0.297023 -0.166682
vt 0.603642 0.00724298
vn 0.915465 0.349538 -0.199364
vt 0.60319 0.012584
vn 0.935302 0.291703 -0.200299
vt 0.601568 0.038089
vn 0.918634 -0.367231 -0.145785
vt 0.600936 0.073296
vn 0.926705 0.346264 -0.14601
vt 0.600878 0.073293
vn 0.933827 0.341422 -0.106762
vt 0.600965 0.093004
vn 0.926347 -0.361446 -0.106011
vt 0.601025 0.093008
vn 0.938923 0.340739 -0.048176
vt 0.600881 0.113959
vn 0.931468 -0.360665 -0.047831
vt 0.600943 0.113959
vn 0.904489 0.315782 -0.286673
vt 0.601278 0.132199
vn 0.897793 -0.334382 -0.28663
vt 0.601335 0.132199
vn 0.899442 -0.359711 -0.248217
vt 0.408685 0.025306
vn 0.215038 -0.945408 -0.244874
vt 0.415467 0.02529
vn 0.170928 -0.942693 -0.286556
vt 0.416378 0.023879
vn 0.897793 -0.334382 -0.28663
vt 0.410425 0.023895
vn -0.676723 -0.706836 -0.205982
vt 0.432555 0.0253
vn -0.67214 -0.710728 -0.20759
vt 0.431382 0.023888
vn -0.975247 0.011162 -0.220837
vt 0.437374 0.025308
vn -0.972543 0.012243 -0.232399
vt 0.435613 0.023897
vn -0.975247 0.011162 -0.220837
vt 0.437374 0.025308
vn -0.66587 0.718212 -0.201962
vt 0.4322 0.025299
vn -0.661581 0.721 -0.20608
vt 0.43107 0.023888
vn -0.972543 0.012243 -0.232399
vt 0.435613 0.023897
vn 0.231273 0.941034 -0.246915
vt 0.415027 0.025291
vn 0.186196 0.938927 -0.289392
vt 0.415993 0.023879
vn 0.905945 0.341474 -0.250316
vt 0.408505 0.025306
vn 0.904489 0.315782 -0.286673
vt 0.410266 0.023895
vn 0.905945 0.341474 -0.250316
vt 0.408505 0.025306
vn 0.904489 0.315782 -0.286673
vt 0.410266 0.023895
vn 0.216598 -0.944939 0.245308
vt 0.415467 0.099816
vn 0.898826 -0.360551 0.24923
vt 0.408686 0.0998
vn 0.897557 -0.335856 0.285645
vt 0.410425 0.101211
vn 0.174249 -0.942024 0.286755
vt 0.416378 0.101227
vn -0.676943 -0.707047 0.20453
vt 0.432555 0.099807
vn -0.671932 -0.710386 0.209428
vt 0.431382 0.101218
vn -0.975232 0.012784 0.220813
vt 0.437374 0.099799
vn -0.972533 0.015035 0.232281
vt 0.435613 0.10121
vn -0.66568 0.717961 0.203475
vt 0.4322 0.099807
vn -0.975232 0.012784 0.220813
vt 0.437374 0.099799
vn -0.972533 0.015035 0.232281
vt 0.435613 0.10121
vn -0.661821 0.721291 0.204285
vt 0.43107 0.101218
vn 0.229755 0.941523 0.246469
vt 0.415027 0.099816
vn 0.182905 0.939635 0.289191
vt 0.415993 0.101227
vn 0.906552 0.340582 0.249335
vt 0.408505 0.0998
vn 0.904729 0.314266 0.28758
vt 0.410267 0.101211
vn 0.906552 0.340582 0.249335
vt 0.408505 0.0998
vn 0.904729 0.314266 0.28758
vt 0.410267 0.101211
vn 0.918634 -0.367175 0.145923
vt 0.617721 0.072414
vn 0.216039 -0.975994 0.027607
vt 0.619874 0.093355
vn 0.9264 -0.361335 0.105929
vt 0.617617 0.093206
vn 0.217203 -0.976095 0.007874
vt 0.618484 0.114247
vn 0.174249 -0.942024 0.286755
vt 0.61853 0.131983
vn 0.897557 -0.335856 0.285645
vt 0.616404 0.131989
vn 0.931481 -0.360638 0.047779
vt 0.616122 0.114247
vn -0.683945 -0.725916 -0.072561
vt 0.625566 0.093728
vn -0.688902 -0.723606 -0.04252
vt 0.624438 0.114247
vn -0.671932 -0.710386 0.209428
vt 0.623888 0.131987
vn -0.994205 0.012871 -0.106726
vt 0.627171 0.093834
vn -0.99807 0.012867 -0.060745
vt 0.626117 0.114247
vn -0.972533 0.015035 0.232281
vt 0.6254 0.131989
vn -0.990028 0.013494 -0.14022
vt 0.626834 0.07367
vn -0.672608 0.736535 -0.071521
vt 0.625448 0.093721
vn -0.994205 0.012871 -0.106726
vt 0.627171 0.093834
vn -0.677571 0.734262 -0.041917
vt 0.624314 0.114247
vn -0.661821 0.721291 0.204285
vt 0.623777 0.131986
vn -0.972533 0.015035 0.232281
vt 0.6254 0.131989
vn -0.99807 0.012867 -0.060745
vt 0.626117 0.114247
vn 0.230965 0.972523 0.02924
vt 0.619728 0.093345
vn 0.232059 0.972663 0.008678
vt 0.618331 0.114247
vn 0.182905 0.939635 0.289191
vt 0.618392 0.131983
vn 0.933775 0.341542 0.106832
vt 0.617558 0.093202
vn 0.938906 0.340778 0.048229
vt 0.61606 0.114247
vn 0.904729 0.314266 0.28758
vt 0.616347 0.131989
vn 0.940199 0.297058 0.166679
vt 0.618598 0.00569499
vn 0.915443 0.349597 0.199362
vt 0.61841 0.010922
vn 0.935301 0.291704 0.2003
vt 0.618013 0.037489
vn 0.926701 0.346329 0.145884
vt 0.617664 0.072407
vn 0.933775 0.341542 0.106832
vt 0.617558 0.093202
vn 0.904729 0.314266 0.28758
vt 0.616347 0.131989
vn 0.938906 0.340778 0.048229
vt 0.61606 0.114247
vn 0.216301 -0.975937 -0.027596
vt 0.603282 0.093156
vn 0.170928 -0.942693 -0.286556
vt 0.603461 0.132193
vn 0.217269 -0.97608 -0.007888
vt 0.603305 0.113959
vn -0.683956 -0.725889 0.072736
vt 0.608974 0.09353
vn -0.67214 -0.710728 -0.20759
vt 0.608819 0.132196
vn -0.688904 -0.723599 0.042617
vt 0.60926 0.113959
vn -0.994203 0.01307 0.106721
vt 0.610579 0.093636
vn -0.972543 0.012243 -0.232399
vt 0.610331 0.132199
vn -0.99807 0.012924 0.060743
vt 0.610939 0.113959
vn -0.990025 0.013666 0.140229
vt 0.610123 0.073753
vn -0.994203 0.01307 0.106721
vt 0.610579 0.093636
vn -0.672606 0.736553 0.071343
vt 0.608855 0.093523
vn -0.99807 0.012924 0.060743
vt 0.610939 0.113959
vn -0.972543 0.012243 -0.232399
vt 0.610331 0.132199
vn -0.661581 0.721 -0.20608
vt 0.608708 0.132196
vn -0.677568 0.73427 0.041819
vt 0.609136 0.113959
vn 0.230708 0.972583 -0.029253
vt 0.603136 0.093147
vn 0.186196 0.938927 -0.289392
vt 0.603323 0.132193
vn 0.231988 0.97268 -0.008667
vt 0.603152 0.113959
vn 0.933827 0.341422 -0.106762
vt 0.600965 0.093004
vn 0.904489 0.315782 -0.286673
vt 0.601278 0.132199
vn 0.938923 0.340739 -0.048176
vt 0.600881 0.113959
vn 0.535644 -0.56964 -0.623374
vt 0.278866 0.494513
vn 0.706948 -0.707265 0.000849
vt 0.279216 0.851441
vn -0.707218 -0.706995 -0.000871
vt 0.293833 0.851441
vn -0.614674 -0.585921 -0.528083
vt 0.294094 0.494543
vn 0.706948 -0.707265 0.000849
vt 0.279216 0.851441
vn 0.560835 -0.574239 0.596418
vt 0.279825 0.494433
vn -0.593203 -0.580585 0.557702
vt 0.295291 0.494421
vn -0.707218 -0.706995 -0.000871
vt 0.293833 0.851441
vn 0.535631 0.569646 -0.623381
vt 0.273889 0.494513
vn -0.614666 0.585926 -0.528087
vt 0.289118 0.494543
vn -0.707225 0.706988 -0.000871
vt 0.288856 0.851441
vn 0.706953 0.707261 0.000848999
vt 0.27424 0.851441
vn 0.706953 0.707261 0.000848999
vt 0.27424 0.851441
vn -0.707225 0.706988 -0.000871
vt 0.288856 0.851441
vn -0.593196 0.580588 0.557706
vt 0.290315 0.494421
vn 0.560836 0.574238 0.596417
vt 0.274848 0.494433
vn 0.535644 -0.56964 -0.623374
vt 0.278866 0.494513
vn -0.614674 -0.585921 -0.528083
vt 0.294094 0.494543
vn -0.593203 -0.580585 0.557702
vt 0.295291 0.494421
vn 0.560836 0.574238 0.596417
vt 0.274848 0.494433
vn -0.593196 0.580588 0.557706
vt 0.290315 0.494421
vn 0.535631 0.569646 -0.623381
vt 0.273889 0.494513
f 1/1/1 2/2/2 3/3/3
f 3/3/3 4/4/4 1/1/1
f 5/5/5 6/6/6 1/1/1
f 1/1/1 7/7/7 5/5/5
f 8/8/8 9/9/9 5/5/5
f 5/5/5 10/10/10 8/8/8
f 11/11/11 12/12/12 8/13/13
f 8/13/13 13/14/14 11/11/11
f 14/15/15 15/16/16 11/11/11
f 11/11/11 16/17/17 14/15/15
f 17/18/18 18/19/19 14/15/15
f 14/15/15 19/20/20 17/18/18
f 20/21/21 21/22/22 18/19/19
f 18/19/19 17/18/18 20/21/21
f 18/19/19 22/23/23 15/16/16
f 15/16/16 14/15/15 18/19/19
f 15/16/16 23/24/24 12/12/12
f 12/12/12 11/11/11 15/16/16
f 8/8/8 12/25/25 9/9/9
f 9/9/9 24/26/26 6/6/6
f 6/6/6 5/5/5 9/9/9
f 6/6/6 25/27/27 2/2/2
f 2/2/2 1/1/1 6/6/6
f 26/28/28 27/29/29 28/30/30
f 25/27/27 26/28/28 28/30/30
f 25/27/27 28/30/30 2/2/2
f 24/26/26 25/27/27 6/6/6
f 12/25/25 29/31/31 9/9/9
f 29/31/31 24/26/26 9/9/9
f 23/24/24 29/32/32 12/12/12
f 22/23/23 23/24/24 15/16/16
f 21/22/22 22/23/23 18/19/19
f 30/33/33 31/34/34 22/23/23
f 22/23/23 21/22/22 30/33/33
f 22/23/23 31/34/34 23/24/24
f 31/34/34 32/35/35 23/24/24
f 32/35/35 33/36/36 29/32/32
f 29/32/32 23/24/24 32/35/35
f 33/37/37 34/38/38 24/26/26
f 24/26/26 29/31/31 33/37/37
f 24/26/26 34/38/38 25/27/27
f 34/38/38 26/28/28 25/27/27
f 34/38/38 35/39/39 26/28/28
f 35/39/39 36/40/40 26/28/28
f 31/34/34 37/41/41 32/35/35
f 30/33/33 38/42/42 31/34/34
f 38/42/42 37/41/41 31/34/34
f 32/35/35 37/41/41 33/36/36
f 35/39/39 37/43/43 38/44/44
f 36/45/45 35/46/46 38/42/42
f 38/44/44 30/47/47 27/29/29
f 26/28/28 36/40/40 27/29/29
f 36/40/40 38/44/44 27/29/29
f 33/37/37 35/39/39 34/38/38
f 33/36/36 37/41/41 35/46/46
f 39/48/48 40/49/49 41/50/50
f 41/50/50 42/51/51 39/48/48
f 41/50/50 43/52/52 44/53/53
f 44/53/53 45/54/54 41/50/50
f 44/53/53 46/55/55 47/56/56
f 47/56/56 48/57/57 44/53/53
f 47/58/58 49/59/59 50/60/60
f 50/60/60 51/61/61 47/58/58
f 50/60/60 52/62/62 53/63/63
f 53/63/63 54/64/64 50/60/60
f 53/63/63 55/65/65 56/66/66
f 56/66/66 57/67/67 53/63/63
f 55/65/65 58/68/68 59/69/69
f 59/69/69 56/66/66 55/65/65
f 52/62/62 60/70/70 55/65/65
f 55/65/65 53/63/63 52/62/62
f 49/59/59 61/71/71 52/62/62
f 52/62/62 50/60/60 49/59/59
f 46/55/55 49/72/72 47/56/56
f 43/52/52 62/73/73 46/55/55
f 46/55/55 44/53/53 43/52/52
f 40/49/49 63/74/74 43/52/52
f 43/52/52 41/50/50 40/49/49
f 64/75/75 65/76/76 66/77/77
f 64/75/75 66/77/77 63/74/74
f 40/49/49 64/75/75 63/74/74
f 43/52/52 63/74/74 62/73/73
f 49/72/72 46/55/55 67/78/78
f 46/55/55 62/73/73 67/78/78
f 49/59/59 67/79/79 61/71/71
f 52/62/62 61/71/71 60/70/70
f 55/65/65 60/70/70 58/68/68
f 60/70/70 68/80/80 69/81/81
f 69/81/81 58/68/68 60/70/70
f 60/70/70 61/71/71 68/80/80
f 61/71/71 70/82/82 68/80/80
f 67/79/79 71/83/83 70/82/82
f 70/82/82 61/71/71 67/79/79
f 62/73/73 72/84/84 71/85/85
f 71/85/85 67/78/78 62/73/73
f 62/73/73 63/74/74 72/84/84
f 63/74/74 66/77/77 72/84/84
f 72/84/84 66/77/77 73/86/86
f 66/77/77 74/87/87 73/86/86
f 68/80/80 70/82/82 75/88/88
f 69/81/81 68/80/80 76/89/89
f 68/80/80 75/88/88 76/89/89
f 70/82/82 71/83/83 75/88/88
f 73/90/90 74/91/91 76/89/89
f 76/89/89 75/88/88 73/90/90
f 76/92/92 65/76/76 69/93/93
f 66/77/77 65/76/76 74/87/87
f 65/76/76 76/92/92 74/87/87
f 71/85/85 72/84/84 73/86/86
f 71/83/83 73/90/90 75/88/88
f 27/29/29 30/47/47 21/94/94
f 28/30/30 27/29/29 21/94/94
f 28/30/30 21/94/94 20/95/95
f 2/2/2 28/30/30 20/95/95
f 3/3/3 2/2/2 20/95/95
f 3/3/3 20/95/95 17/96/96
f 77/97/97 3/3/3 17/96/96
f 77/97/97 17/96/96 19/98/98
f 77/97/97 19/98/98 78/99/99
f 79/100/100 77/97/97 78/99/99
f 79/100/100 78/99/99 80/101/101
f 81/102/102 79/100/100 80/101/101
f 80/101/101 82/103/103 83/104/104
f 81/102/102 80/101/101 83/104/104
f 84/105/105 85/106/106 86/107/107
f 86/107/107 83/108/108 84/105/105
f 85/106/106 87/109/109 88/110/110
f 88/110/110 86/107/107 85/106/106
f 87/109/109 89/111/111 90/112/112
f 90/112/112 88/110/110 87/109/109
f 89/113/113 91/114/114 92/115/115
f 92/115/115 90/116/116 89/113/113
f 91/114/114 93/117/117 94/118/118
f 94/118/118 92/115/115 91/114/114
f 93/117/117 95/119/119 82/120/120
f 82/120/120 94/118/118 93/117/117
f 95/121/121 84/105/105 83/108/108
f 83/108/108 82/122/122 95/121/121
f 96/123/123 97/124/124 98/125/125
f 98/125/125 99/126/126 96/123/123
f 100/127/127 96/123/123 99/126/126
f 99/126/126 101/128/128 100/127/127
f 102/129/129 100/127/127 101/128/128
f 101/128/128 103/130/130 102/129/129
f 104/131/131 102/132/132 103/133/133
f 103/133/133 105/134/134 104/131/131
f 106/135/135 104/131/131 105/134/134
f 105/134/134 107/136/136 106/135/135
f 108/137/137 106/135/135 107/136/136
f 107/136/136 109/138/138 108/137/137
f 97/124/124 108/139/139 109/140/140
f 109/140/140 98/125/125 97/124/124
f 95/121/121 108/139/139 97/124/124
f 97/124/124 84/105/105 95/121/121
f 93/117/117 106/135/135 108/137/137
f 108/137/137 95/119/119 93/117/117
f 91/114/114 104/131/131 106/135/135
f 106/135/135 93/117/117 91/114/114
f 89/113/113 102/132/132 104/131/131
f 104/131/131 91/114/114 89/113/113
f 87/109/109 100/127/127 102/129/129
f 102/129/129 89/111/111 87/109/109
f 85/106/106 96/123/123 100/127/127
f 100/127/127 87/109/109 85/106/106
f 84/105/105 97/124/124 96/123/123
f 96/123/123 85/106/106 84/105/105
f 110/141/141 39/48/48 42/51/51
f 110/141/141 42/51/51 111/142/142
f 112/143/143 110/141/141 111/142/142
f 112/143/143 111/142/142 113/144/144
f 113/144/144 99/145/145 98/146/146
f 113/144/144 98/146/146 114/147/147
f 112/143/143 113/144/144 114/147/147
f 42/51/51 41/50/50 45/54/54
f 42/51/51 45/54/54 115/148/148
f 111/142/142 42/51/51 115/148/148
f 111/142/142 115/148/148 116/149/149
f 116/149/149 101/150/150 99/145/145
f 116/149/149 99/145/145 113/144/144
f 111/142/142 116/149/149 113/144/144
f 45/54/54 44/53/53 48/57/57
f 45/54/54 48/57/57 117/151/151
f 115/148/148 45/54/54 117/151/151
f 115/148/148 117/151/151 118/152/152
f 118/152/152 103/153/153 101/150/150
f 118/152/152 101/150/150 116/149/149
f 115/148/148 118/152/152 116/149/149
f 48/154/154 47/58/58 51/61/61
f 48/154/154 51/61/61 119/155/155
f 117/156/156 48/154/154 119/155/155
f 117/156/156 119/155/155 120/157/157
f 120/157/157 105/158/158 103/159/159
f 120/157/157 103/159/159 118/160/160
f 117/156/156 120/157/157 118/160/160
f 51/61/61 50/60/60 54/64/64
f 51/61/61 54/64/64 121/161/161
f 119/155/155 51/61/61 121/161/161
f 119/155/155 121/161/161 122/162/162
f 122/162/162 107/163/163 105/158/158
f 122/162/162 105/158/158 120/157/157
f 119/155/155 122/162/162 120/157/157
f 54/64/64 53/63/63 57/67/67
f 54/64/64 57/67/67 123/164/164
f 121/161/161 54/64/64 123/164/164
f 121/161/161 123/164/164 124/165/165
f 124/165/165 109/166/166 107/163/163
f 124/165/165 107/163/163 122/162/162
f 121/161/161 124/165/165 122/162/162
f 58/167/167 69/93/93 65/76/76
f 58/167/167 65/76/76 64/75/75
f 59/168/168 58/167/167 64/75/75
f 59/168/168 64/75/75 40/49/49
f 59/168/168 40/49/49 39/48/48
f 56/169/169 59/168/168 39/48/48
f 56/169/169 39/48/48 110/141/141
f 57/170/170 56/169/169 110/141/141
f 57/170/170 110/141/141 112/143/143
f 123/171/171 57/170/170 112/143/143
f 123/171/171 112/143/143 114/147/147
f 114/147/147 98/146/146 109/172/172
f 114/147/147 109/172/172 124/173/173
f 123/171/171 114/147/147 124/173/173
f 4/4/4 3/3/3 77/97/97
f 4/4/4 77/97/97 79/100/100
f 125/174/174 4/4/4 79/100/100
f 125/174/174 79/100/100 81/102/102
f 81/102/102 83/104/104 86/175/175
f 81/102/102 86/175/175 126/176/176
f 125/174/174 81/102/102 126/176/176
f 7/7/7 1/1/1 4/4/4
f 7/7/7 4/4/4 125/174/174
f 127/177/177 7/7/7 125/174/174
f 127/177/177 125/174/174 126/176/176
f 126/176/176 86/175/175 88/178/178
f 126/176/176 88/178/178 128/179/179
f 127/177/177 126/176/176 128/179/179
f 10/10/10 5/5/5 7/7/7
f 10/10/10 7/7/7 127/177/177
f 129/180/180 10/10/10 127/177/177
f 129/180/180 127/177/177 128/179/179
f 128/179/179 88/178/178 90/181/181
f 128/179/179 90/181/181 130/182/182
f 129/180/180 128/179/179 130/182/182
f 13/14/14 8/13/13 10/183/183
f 13/14/14 10/183/183 129/184/184
f 131/185/185 13/14/14 129/184/184
f 131/185/185 129/184/184 130/186/186
f 130/186/186 90/187/187 92/188/188
f 130/186/186 92/188/188 132/189/189
f 131/185/185 130/186/186 132/189/189
f 16/17/17 11/11/11 13/14/14
f 16/17/17 13/14/14 131/185/185
f 133/190/190 16/17/17 131/185/185
f 133/190/190 131/185/185 132/189/189
f 132/189/189 92/188/188 94/191/191
f 132/189/189 94/191/191 134/192/192
f 133/190/190 132/189/189 134/192/192
f 19/20/20 14/15/15 16/17/17
f 19/20/20 16/17/17 133/190/190
f 78/193/193 19/20/20 133/190/190
f 78/193/193 133/190/190 134/192/192
f 134/192/192 94/191/191 82/194/194
f 134/192/192 82/194/194 80/195/195
f 78/193/193 134/192/192 80/195/195
f 135/196/196 136/197/197 137/198/198
f 137/198/198 138/199/199 135/196/196
f 136/200/200 139/201/201 140/202/202
f 140/202/202 137/203/203 136/200/200
f 141/204/204 142/205/205 143/206/206
f 143/206/206 144/207/207 141/204/204
f 144/208/208 143/209/209 145/210/210
f 145/210/210 146/211/211 144/208/208
f 135/212/212 138/213/213 142/205/205
f 142/205/205 141/204/204 135/212/212
f 138/213/213 137/203/203 143/206/206
f 143/206/206 142/205/205 138/213/213
f 137/198/198 140/214/214 145/210/210
f 145/210/210 143/209/209 137/198/198
f 140/202/202 139/201/201 146/215/215
f 146/215/215 145/216/216 140/202/202
f 139/201/201 136/200/200 144/207/207
f 144/207/207 146/215/215 139/201/201
f 136/197/197 135/196/196 141/217/217
f 141/217/217 144/208/208 136/197/197
